.
 
http://www.scenetime.com    -   SceneTime [ We been having it ] !!!


How come you press harder on a remote control when you know the battery is dead? so you better seed to get speed ;)

        Seed back for speed


...................................NFO:................................................. [color=grey]ANOTHER RELEASE BY ~ EMpire P2P ~[/color]
[img]http://leetleech.org/images/20703149825136096160.png[/img]
 [color=green]Release Title[/color] 
 [b]The Traveler 2010 720p BRRip ~empire p2p~[/b]
 [color=green]Release Date[/color]  
 [b]6.20.2011 [/b]
 [color=green]plot[/color] 
 [b]On the Christmas Eve in a small town, a stranger enters in the precinct and tells the Desk Sergeant Gulloy that he had murdered six people. Detective Alexander Black arrests the man in a cell and Deputy Jerry Pine, Deputy Jane Hollow, Deputy Toby Sherwood and Deputy Jack Hawkins are not able to identify him since the stranger does not have fingerprints. They call him Mr. Nobody and Deputy Hawkins recalls that he resembles the haired drifter that they had arrested and tortured one year ago, when the daughter of Detective Black had vanished. Along the night, while Mr. Nobody confesses each murder and whistles Lacrimosa from Mozart's Requiem, each deputy dies. Sooner Detective Black discovers that Mr. Nobody is a revengeful spirit that has come to kill them for what they did to the drifter one year ago and they are doomed to die.[/b]
 [color=green]actors[/color] 
 [b]
	Val Kilmer	... 	Mr. Nobody / Drifter / Stanley Hoppington
	Dylan Neal	... 	Detective Alexander Black
	Paul McGillion	... 	Deputy Jerry Pine
	Camille Sullivan	... 	Deputy Jane Hollows
	Nels Lennarson	... 	Deputy Toby Sherwood
	Chris Gauthier	... 	Desk Sargeant Gulloy (as Christopher Gauthier)
	John Cassini	... 	Deputy Jack Hawkins
	Sierra Pitkin	... 	Mary Black
	Panou	... 	Trooper Vitelli
	Denyc	... 	Trooper Velasquez[/b]
 [color=green] Genres:[/color]
 [b]Horror | Thriller [/b]
 [color=green]Language[/color] 
  [b]english[/b]
 [color=green]Video ~n~ audio[/color] 
 [b] Format                           : MPEG-4
Format profile                   : Base Media / Version 2
Codec ID                         : mp42
File size                        : 1.47 GiB
Duration                         : 1h 35mn
Overall bit rate                 : 2 193 Kbps
Encoded date                     : UTC 2011-06-19 17:17:21
Tagged date                      : UTC 2011-06-19 21:31:43
Writing application              : HandBrake 0.9.5 2011010300

Video
ID                               : 1
Format                           : AVC
Format/Info                      : Advanced Video Codec
Format profile                   : Main@L3.1
Format settings, CABAC           : Yes
Format settings, ReFrames        : 4 frames
Codec ID                         : avc1
Codec ID/Info                    : Advanced Video Coding
Duration                         : 1h 35mn
Bit rate mode                    : Variable
Bit rate                         : 2 027 Kbps
Width                            : 1 276 pixels
Height                           : 544 pixels
Display aspect ratio             : 2.35:1
Frame rate mode                  : Variable
Frame rate                       : 24.000 fps
Minimum frame rate               : 23.810 fps
Maximum frame rate               : 24.390 fps
Color space                      : YUV
Chroma subsampling               : 4:2:0
Bit depth                        : 8 bits
Scan type                        : Progressive
Bits/(Pixel*Frame)               : 0.122
Stream size                      : 1.36 GiB (92%)
Writing library                  : x264 core 112
 
Encoded date                     : UTC 2011-06-19 17:17:21
Tagged date                      : UTC 2011-06-19 21:31:43
Color primaries                  : BT.709-5, BT.1361, IEC 61966-2-4, SMPTE RP177
Transfer characteristics         : BT.709-5, BT.1361
Matrix coefficients              : BT.709-5, BT.1361, IEC 61966-2-4 709, SMPTE RP177

Audio
ID                               : 2
Format                           : AAC
Format/Info                      : Advanced Audio Codec
Format profile                   : LC
Codec ID                         : 40
Duration                         : 1h 35mn
Bit rate mode                    : Variable
Bit rate                         : 160 Kbps
Maximum bit rate                 : 245 Kbps
Channel(s)                       : 2 channels
Channel positions                : Front: L R
Sampling rate                    : 48.0 KHz
Compression mode                 : Lossy
Stream size                      : 110 MiB (7%)
Language                         : English
Encoded date                     : UTC 2011-06-19 17:17:21
Tagged date                      : UTC 2011-06-19 21:31:43

[/b]

 [color=green]imdb info[/color] 
 [b]http://www.imdb.com/title/tt1533084/[/b]
 [color=green]Our Screen Shots[/color]
[img]http://leetleech.org/images/39538005876975150770.png[/img] 
[img]http://leetleech.org/images/90461014009767493595.png[/img]
 [img]http://leetleech.org/images/02215141345008357363.png[/img]
 [color=red]
 ALWAYS LOOKiNG 4 SCREENERS+CAM+SiLVERS+LiNE+PRERETAiL BD/DVD. ANY REGiON

 If you'd like to help, feel free to contact us at: proud2pirate@hush.ai~
[/color]

 [color=yellow]Greetz[/color]:[color=red]To all those that make it posible for us to bring topnotch releases.... First off - Kingben glad your ok and back at encoding- BLaZe-IMAGiNE-WiKi-ELEKTRI4KA-LSD-FLAWL3SS-Lynks-BDK....Secong bless those that have fallon behind or just left this... Scene groups p2p groups and who every else we left out  ....THANKS[/color]